# xmcd
#
# Track frame offsets:
# 150
# 16411
# 30125
# 48645
# 63189
# 79685
# 92997
# 110075
# 124939
# 138904
# 155186
# 171406
# 186201
# 203996
#
# Disc length: 2935 seconds
#
#
# Revision: 0
# Processed by: cddbd v1.5.2PL0 Copyright (c) Steve Scherf et al.
# Submitted via: FreeRIP 2.945 
#
DISCID=c30b750e
DTITLE=Νίκος Κουρκούλης - Τόσες μέρες, τόσες νύχτες
DYEAR=2007
DGENRE=
TTITLE0=Αφιερωμέμο
TTITLE1=Σπάστα
TTITLE2=Τόσες μέρες, τόσες νύχτες
TTITLE3=Τι περιμένεις...(Μπράβο)
TTITLE4=Γιατί
TTITLE5=Πόσο πια να πληρώνω
TTITLE6=Καιρός
TTITLE7=Είναι παράλογο
TTITLE8=Το βράδυ
TTITLE9=Αμαρτία
TTITLE10=Γάμος
TTITLE11=Σαν περνάς
TTITLE12=Δεν αντέχω
TTITLE13=Παρασύρομαι
EXTD=
EXTT0=
EXTT1=
EXTT2=
EXTT3=
EXTT4=
EXTT5=
EXTT6=
EXTT7=
EXTT8=
EXTT9=
EXTT10=
EXTT11=
EXTT12=
EXTT13=
PLAYORDER=
